<?xml version="1.0" standalone="no"?>
<!DOCTYPE svg PUBLIC "-//W3C//DTD SVG 20010904//EN"
 "http://www.w3.org/TR/2001/REC-SVG-20010904/DTD/svg10.dtd">
<svg version="1.0" xmlns="http://www.w3.org/2000/svg"
 width="1024.000000pt" height="1024.000000pt" viewBox="0 0 1024.000000 1024.000000"
 preserveAspectRatio="xMidYMid meet">

<g transform="translate(0.000000,1024.000000) scale(0.100000,-0.100000)"
fill="#000000" stroke="none">
<path d="M4803 7794 c-248 -30 -532 -105 -700 -186 l-72 -35 -68 34 c-109 53
-181 68 -323 67 -189 -2 -332 -39 -545 -143 -567 -278 -1043 -801 -1224 -1346
-161 -485 -117 -996 114 -1320 93 -131 254 -241 410 -280 75 -19 184 -19 255
-1 30 8 56 14 56 13 1 -1 -4 -35 -12 -75 -24 -126 -34 -320 -24 -442 53 -598
410 -1074 1035 -1380 418 -204 847 -293 1425 -294 681 -1 1213 140 1672 442
600 397 870 1003 743 1671 -9 46 -15 85 -13 87 2 2 26 -3 53 -11 63 -20 201
-19 279 1 305 78 535 392 587 799 17 141 7 442 -21 570 -48 227 -160 489 -294
689 -327 487 -886 903 -1346 1002 -113 24 -301 25 -389 1 -35 -10 -93 -31
-128 -48 l-64 -31 -123 51 c-195 80 -407 133 -659 166 -146 19 -467 18 -624
-1z m577 -265 c457 -42 848 -227 1093 -517 135 -161 252 -374 321 -587 65
-201 94 -357 136 -722 43 -388 80 -532 187 -747 191 -382 232 -837 107 -1188
-279 -780 -1302 -1209 -2547 -1068 -505 58 -969 245 -1280 517 -310 271 -472
648 -454 1058 10 239 62 435 172 655 123 246 154 374 205 836 55 499 155 822
342 1105 77 115 263 306 368 376 354 237 808 331 1350 282z m-1658 -125 l38
-7 -108 -111 c-256 -267 -429 -598 -527 -1010 -34 -142 -51 -243 -85 -524 -34
-273 -57 -400 -95 -517 -91 -277 -258 -418 -460 -386 -220 34 -353 210 -416
546 -22 115 -17 360 9 493 45 225 131 438 247 612 296 442 808 824 1198 895
82 15 145 18 199 9z m3064 -28 c356 -96 784 -412 1064 -784 266 -354 383 -782
324 -1179 -39 -268 -141 -451 -292 -525 -62 -31 -74 -33 -167 -33 -84 0 -107
4 -147 23 -138 68 -241 230 -304 479 -13 51 -41 236 -63 411 -22 175 -52 374
-66 442 -93 439 -310 851 -589 1118 -36 35 -66 65 -66 67 0 2 12 6 28 8 54 10
189 -3 278 -27z"/>
<path d="M4073 5914 c-50 -18 -115 -78 -142 -132 -44 -86 -46 -210 -6 -305 24
-57 89 -122 147 -147 123 -53 262 11 327 149 21 47 26 70 25 141 0 91 -19 150
-70 217 -59 77 -186 112 -281 77z"/>
<path d="M5975 5907 c-62 -30 -107 -77 -137 -142 -19 -41 -23 -67 -23 -145 0
-90 2 -98 36 -160 58 -105 146 -158 249 -148 94 9 173 70 219 167 34 75 36
201 4 273 -52 115 -123 168 -231 175 -56 3 -75 0 -117 -20z"/>
<path d="M4895 5269 c-251 -28 -408 -111 -450 -239 -14 -41 -16 -74 -13 -147
5 -86 9 -102 48 -181 76 -153 262 -312 442 -377 l63 -23 3 -155 2 -155 -50
-45 c-62 -56 -131 -81 -221 -80 -81 0 -144 27 -244 103 -38 29 -85 57 -103 62
-42 12 -90 -4 -125 -40 -76 -80 -25 -183 144 -292 204 -132 463 -130 665 5
l64 43 53 -35 c201 -137 451 -147 656 -26 75 44 166 124 186 164 50 97 -41
211 -143 181 -21 -7 -65 -33 -97 -58 -144 -112 -269 -137 -396 -77 -35 16 -79
42 -96 57 l-33 28 0 161 0 162 58 17 c147 44 361 215 435 348 90 164 89 344
-4 445 -97 106 -335 167 -639 164 -69 -1 -161 -6 -205 -10z"/>
<path d="M3549 7389 c-383 -57 -912 -444 -1210 -885 -66 -98 -152 -273 -190
-385 -67 -200 -98 -447 -79 -632 38 -371 180 -588 411 -627 152 -26 295 54
383 214 79 142 122 322 166 686 59 500 119 728 270 1035 38 77 95 179 127 227
73 109 201 266 265 323 l48 43 -52 6 c-55 7 -62 6 -139 -5z"/>
<path d="M6522 7393 c-20 -4 -14 -12 54 -81 142 -143 269 -322 368 -519 143
-285 214 -554 266 -1013 34 -303 62 -449 110 -569 65 -167 141 -264 250 -322
39 -21 59 -24 145 -24 89 0 106 3 156 27 173 85 289 333 305 653 21 385 -114
771 -386 1108 -131 163 -359 370 -538 490 -257 172 -573 280 -730 250z"/>
</g>
</svg>
